<?xml version="1.0"?>
<svg xmlns:rdf="http://www.w3.org/1999/02/22-rdf-syntax-ns#" xmlns="http://www.w3.org/2000/svg" xmlns:cc="http://creativecommons.org/ns#" xmlns:xlink="http://www.w3.org/1999/xlink" xmlns:dc="http://purl.org/dc/elements/1.1/" xmlns:svg="http://www.w3.org/2000/svg" id="svg2" viewBox="0 0 395.71 395.71" version="1.1">
  <defs id="defs4">
    <linearGradient id="linearGradient3666" y2="460.22" gradientUnits="userSpaceOnUse" x2="445.88" gradientTransform="matrix(.69785 -.71625 .71625 .69785 -248.94 333.93)" y1="460.22" x1="390.73">
      <stop id="stop3635" stop-color="#8a8a8a" offset="0"/>
      <stop id="stop3641" stop-color="#fff" offset=".5"/>
      <stop id="stop3637" stop-color="#7b7b7b" offset="1"/>
    </linearGradient>
    <linearGradient id="linearGradient3669" y2="460.22" gradientUnits="userSpaceOnUse" x2="445.85" gradientTransform="matrix(.69785 -.71625 .71625 .69785 -248.94 333.93)" y1="460.22" x1="104.29">
      <stop id="stop3645" stop-color="#369" offset="0"/>
      <stop id="stop3647" stop-color="#79bcff" offset="1"/>
    </linearGradient>
  </defs>
  <g id="layer1" transform="translate(-93.687 -240.83)">
    <path id="path2842" fill="none" d="m572.35 323.26c29.823 37.364 47.65 84.723 47.65 136.25 0 54.046-19.616 103.51-52.116 141.66"/>
    <path id="path2816" fill="none" d="m567.88 601.17c-40.091 47.062-99.787 76.91-166.46 76.91-120.71 0-218.57-97.858-218.57-218.57s97.858-218.57 218.57-218.57c69.19 0 130.87 32.15 170.92 82.325"/>
    <path id="path2844" fill="url(#linearGradient3669)" d="m489.24 430.67c2.1164 52.412-16.486 105.55-55.98 146.09-76.26 78.27-201.52 79.9-279.79 3.64-78.266-76.26-79.896-201.52-3.64-279.79 39.49-40.53 92.13-60.51 144.58-59.76"/>
    <g id="text3659">
      <path id="path2835" style="" d="m186.21 409.79v13.282c-0.00003 4.8244 0.83836 7.8102 2.5152 8.9575 0.79424 0.52951 1.9121 0.8531 3.3535 0.97077l3.3535 0.30887v2.7799h-26.431v-2.7799l2.2945-0.30887c2.7064-0.35301 4.3831-1.4267 5.0303-3.2212h0.0883c0.50008-1.412 0.75012-3.6477 0.75014-6.7071v-35.521c-0.00002-4.5596-0.69132-7.413-2.0739-8.5604-0.73544-0.6177-1.7356-1.0442-3.0005-1.2796-0.11767 0.00006-0.25005 0.00006-0.39713 0-0.11767-0.0294-0.25005-0.0588-0.39713-0.0883l-2.2945-0.26476v-2.824h30.005c9.3546 0.00006 15.929 2.6182 19.724 7.8543 1.912 2.7064 2.8681 5.8393 2.8682 9.3987-0.00006 5.0009-1.7651 9.2223-5.2951 12.664l-0.0883 0.0883c-0.41188 0.35304-0.80901 0.69133-1.1914 1.0149-0.38248 0.2942-0.7796 0.55895-1.1914 0.79426-3.7654 2.2946-8.7369 3.4418-14.914 3.4418h-12.708m0-3.883h11.296c5.0597 0.00003 8.8251-1.3532 11.296-4.0596l0.0882-0.0883 0.0883-0.0882c2.2945-2.5004 3.4417-5.6922 3.4418-9.5752-0.00005-4.0007-1.1473-7.2365-3.4418-9.7076-2.4711-2.7063-6.6336-4.0595-12.488-4.0595-5.0598 0.00005-8.1338 0.57368-9.2222 1.7209-0.70603 0.7649-1.059 2.1181-1.059 4.0596v21.798"/>
      <path id="path2837" style="" d="m276.58 374.54 6.2217 16.282-2.8682 1.1914c-0.91198-1.0884-1.7945-2.0886-2.6475-3.0005-0.85315-0.91188-1.6915-1.7503-2.5152-2.5152-4.795-4.5302-10.458-7.1189-16.988-7.7661l-5.33-0.31c-5.0303 0.00005-8.1338 0.9414-9.3105 2.824-0.6472 1.0002-0.97079 2.5593-0.97076 4.6773v15.4h6.8394c4.0889 0.00003 6.8688-0.91189 8.3397-2.7358v-0.0883c1.1472-1.5002 2.015-4.3978 2.6034-8.6927h3.0888v27.049h-3.0888c-0.55897-5.7951-2.4564-9.384-5.6922-10.767h-0.0883c-1.4415-0.58831-3.2212-0.88248-5.3392-0.88251h-6.663v19.062c-0.00003 2.5887 0.38239 4.3978 1.1473 5.4274 1.4414 1.6768 4.4566 2.5152 9.0457 2.5152 7.8543 0 14.326-1.7503 19.415-5.2509 0.55888-0.35299 1.1031-0.73542 1.6326-1.1473 0.52945-0.41183 1.0737-0.86779 1.6326-1.3679 2.5592-2.3534 5.2362-5.3098 8.0308-8.8692l2.824 1.2796-8.2515 19.239h-52.686v-2.7799l2.2945-0.30887c2.7064-0.35301 4.3831-1.4267 5.0303-3.2212h0.0882c0.50008-1.412 0.75012-3.6477 0.75014-6.7071v-35.521c-0.00002-4.5596-0.69132-7.413-2.0739-8.5604-0.73544-0.6177-1.7356-1.0442-3.0005-1.2796-0.11767 0.00006-0.25005 0.00006-0.39713 0-0.11767-0.0294-0.25005-0.0588-0.39713-0.0883l-2.2945-0.26476v-2.824h51.627"/>
      <path id="path2839" style="" d="m341.71 374.54 6.2217 16.282-2.8682 1.1914c-0.91198-1.0884-1.7945-2.0886-2.6475-3.0005-0.85315-0.91188-1.6915-1.7503-2.5152-2.5152-4.795-4.5302-10.458-7.1189-16.988-7.7661l-5.34-0.31c-5.0303 0.00005-8.1338 0.9414-9.3105 2.824-0.64719 1.0002-0.97078 2.5593-0.97076 4.6773v15.4h6.8395c4.0889 0.00003 6.8688-0.91189 8.3397-2.7358v-0.0883c1.1472-1.5002 2.015-4.3978 2.6034-8.6927h3.0888v27.049h-3.0888c-0.55896-5.7951-2.4564-9.384-5.6922-10.767h-0.0883c-1.4415-0.58831-3.2212-0.88248-5.3392-0.88251h-6.663v19.062c-0.00002 2.5887 0.3824 4.3978 1.1473 5.4274 1.4414 1.6768 4.4566 2.5152 9.0457 2.5152 7.8543 0 14.326-1.7503 19.415-5.2509 0.55887-0.35299 1.1031-0.73542 1.6326-1.1473 0.52945-0.41183 1.0737-0.86779 1.6326-1.3679 2.5592-2.3534 5.2362-5.3098 8.0308-8.8692l2.824 1.2796-8.2515 19.239h-52.686v-2.7799l2.2945-0.30887c2.7064-0.35301 4.3831-1.4267 5.0303-3.2212h0.0882c0.50008-1.412 0.75012-3.6477 0.75013-6.7071v-35.521c-0.00001-4.5596-0.69131-7.413-2.0739-8.5604-0.73543-0.6177-1.7356-1.0442-3.0005-1.2796-0.11768 0.00006-0.25005 0.00006-0.39713 0-0.11768-0.0294-0.25005-0.0588-0.39713-0.0883l-2.2945-0.26476v-2.824h51.627"/>
      <path id="path2841" style="" d="m409.27 416.77-7.2366 19.327h-46.817v-2.7799l2.2945-0.30887c2.7064-0.35301 4.3831-1.4267 5.0303-3.2212h0.0883c0.50008-1.412 0.75012-3.6477 0.75013-6.7071v-35.521c-0.00001-4.5596-0.69131-7.413-2.0739-8.5604-0.73543-0.6177-1.7356-1.0442-3.0005-1.2796-0.11768 0.00006-0.25005 0.00006-0.39713 0-0.11768-0.0294-0.25005-0.0588-0.39713-0.0883l-2.2945-0.26476v-2.824h25.946v2.824l-2.8682 0.26476c-2.7064 0.23539-4.4273 1.3826-5.1627 3.4418-0.47069 1.2356-0.70603 3.3977-0.70601 6.4864v37.418c-0.00002 2.7064 0.35298 4.5155 1.059 5.4274 1.1767 1.5003 3.4124 2.2504 6.7071 2.2504 1.9415 0 3.9566-0.26475 6.0452-0.79426 3.7359-0.97075 7.266-2.7211 10.59-5.2509l0.26475-0.17651c1.412-1.0884 2.5886-2.1474 3.53-3.177 0.79421-0.79425 1.6914-1.8238 2.6917-3.0888 1.0295-1.2943 2.1768-2.824 3.4418-4.589l2.5152 1.1914"/>
      <path id="path2843" style="" d="m172.53 491.38h32.344v-13.458c-0.00006-4.5596-0.69135-7.413-2.0739-8.5604-0.73548-0.6177-1.7356-1.0442-3.0005-1.2796l-0.79426-0.0882-2.2945-0.26476v-2.824h25.328v2.824l-2.2504 0.26476c-2.7064 0.35306-4.3979 1.4415-5.0744 3.2653-0.52957 1.3238-0.79432 3.5448-0.79426 6.663v35.521c-0.00006 4.5891 0.69123 7.4572 2.0739 8.6045 0.73536 0.58834 1.7502 1.0002 3.0447 1.2355h0.0882l0.66188 0.0883 2.2504 0.30888v2.7799h-25.328v-2.7799l2.2945-0.30888c2.7063-0.353 4.3831-1.4267 5.0303-3.2212h0.0882c0.50004-1.412 0.75008-3.6477 0.75014-6.7071v-18.18h-32.344v18.18c-0.00002 4.5891 0.69128 7.4572 2.0739 8.6045 0.7354 0.58834 1.7503 1.0002 3.0447 1.2355l0.75013 0.0883 2.2504 0.30888v2.7799h-25.328v-2.7799l2.2945-0.30888c2.7064-0.353 4.3831-1.4267 5.0303-3.2212h0.0883c0.50008-1.412 0.75013-3.6477 0.75014-6.7071v-35.521c-0.00001-4.5596-0.69131-7.413-2.0739-8.5604-0.73544-0.6177-1.7356-1.0442-3.0005-1.2796-0.11767 0.00006-0.25005 0.00006-0.39713 0-0.11767-0.0294-0.25005-0.0588-0.39713-0.0882l-2.2945-0.26476v-2.824h25.328v2.824l-2.2504 0.26476c-2.7064 0.35306-4.3979 1.4415-5.0744 3.2653-0.52953 1.3238-0.79428 3.5448-0.79426 6.663v13.458"/>
      <path id="path2845" style="" d="m279.32 464.91 6.2217 16.282-2.8682 1.1914c-0.91198-1.0884-1.7945-2.0886-2.6475-3.0005-0.85315-0.91188-1.6915-1.7503-2.5152-2.5152-4.795-4.5302-10.458-7.1188-16.988-7.7661l-5.3392-0.30887c-5.0303 0.00005-8.1338 0.9414-9.3105 2.824-0.6472 1.0002-0.97079 2.5593-0.97077 4.6773v15.4h6.8395c4.0889 0.00003 6.8688-0.9119 8.3397-2.7358v-0.0883c1.1472-1.5002 2.015-4.3978 2.6034-8.6927h3.0888v27.049h-3.0888c-0.55897-5.7951-2.4564-9.384-5.6922-10.767h-0.0883c-1.4415-0.58831-3.2212-0.88248-5.3392-0.88251h-6.663v19.062c-0.00002 2.5887 0.3824 4.3978 1.1473 5.4274 1.4414 1.6768 4.4566 2.5152 9.0457 2.5152 7.8543 0 14.326-1.7503 19.415-5.2509 0.55887-0.353 1.1031-0.73542 1.6326-1.1473 0.52945-0.41183 1.0737-0.86779 1.6326-1.3679 2.5592-2.3533 5.2362-5.3098 8.0308-8.8692l2.824 1.2796-8.2515 19.239h-52.686v-2.7799l2.2945-0.30888c2.7064-0.353 4.3831-1.4267 5.0303-3.2212h0.0882c0.50008-1.412 0.75012-3.6477 0.75013-6.7071v-35.521c-0.00001-4.5596-0.69131-7.413-2.0739-8.5604-0.73544-0.6177-1.7356-1.0442-3.0005-1.2796-0.11767 0.00006-0.25005 0.00006-0.39713 0-0.11767-0.0294-0.25005-0.0588-0.39713-0.0882l-2.2945-0.26476v-2.824h51.627"/>
      <path id="path2847" style="" d="m333.77 496.54 15.003 21.224 1.2796 1.5444c2.118 2.2651 4.9126 3.7212 8.3838 4.3684v2.7799h-15.091l-20.298-28.99h-13.017v15.973c-0.00002 4.7656 0.77953 7.722 2.3387 8.8692 0.76481 0.52951 1.9415 0.88252 3.53 1.059l3.2212 0.30888v2.7799h-26.299v-2.7799l2.2945-0.30888c2.7064-0.353 4.3831-1.4267 5.0303-3.2212h0.0882c0.50008-1.412 0.75012-3.6477 0.75013-6.7071v-35.521c-0.00001-4.5596-0.69131-7.413-2.0739-8.5604-0.73544-0.6177-1.7356-1.0442-3.0005-1.2796-0.11767 0.00006-0.25005 0.00006-0.39713 0-0.11767-0.0294-0.25005-0.0588-0.39713-0.0882l-2.2945-0.26476v-2.824h36.801c9.1486 0.00006 15.385 2.5888 18.709 7.7661 1.4414 2.2357 2.1621 4.8392 2.1622 7.8102-0.00006 4.8538-1.868 8.7957-5.6039 11.826l-1.1473 0.88251c-0.64723 0.47071-1.3091 0.88255-1.9856 1.2355-0.67665 0.32362-1.3826 0.60308-2.118 0.83838-0.73547 0.23537-1.5886 0.47071-2.5593 0.70601-0.97081 0.20595-2.0739 0.39716-3.3094 0.57363m-23.74-2.9564h15.179c4.8832 0.00004 8.4868-0.94131 10.811-2.824 3.0887-2.4416 4.6625-5.751 4.7214-9.9282-0.00005-8.1485-5.7805-12.223-17.341-12.223-5.1186 0.00006-8.7957 0.48544-11.031 1.4562-1.5003 0.67664-2.2798 1.971-2.3387 3.883v19.636"/>
      <path id="path2850" style="" d="m409.58 464.91 6.2217 16.282-2.8682 1.1914c-0.91199-1.0884-1.7945-2.0886-2.6475-3.0005-0.85314-0.91188-1.6915-1.7503-2.5152-2.5152-4.795-4.5302-10.458-7.1188-16.988-7.7661l-5.3392-0.30887c-5.0303 0.00005-8.1338 0.9414-9.3105 2.824-0.6472 1.0002-0.97078 2.5593-0.97076 4.6773v15.4h6.8394c4.0889 0.00003 6.8688-0.9119 8.3397-2.7358v-0.0883c1.1472-1.5002 2.015-4.3978 2.6034-8.6927h3.0888v27.049h-3.0888c-0.55896-5.7951-2.4564-9.384-5.6922-10.767h-0.0883c-1.4415-0.58831-3.2212-0.88248-5.3392-0.88251h-6.663v19.062c-0.00002 2.5887 0.3824 4.3978 1.1473 5.4274 1.4414 1.6768 4.4566 2.5152 9.0457 2.5152 7.8543 0 14.326-1.7503 19.415-5.2509 0.55887-0.353 1.1031-0.73542 1.6326-1.1473 0.52945-0.41183 1.0737-0.86779 1.6326-1.3679 2.5592-2.3533 5.2362-5.3098 8.0308-8.8692l2.824 1.2796-8.2515 19.239h-52.686v-2.7799l2.2945-0.30888c2.7064-0.353 4.3831-1.4267 5.0303-3.2212h0.0883c0.50008-1.412 0.75012-3.6477 0.75014-6.7071v-35.521c-0.00002-4.5596-0.69131-7.413-2.0739-8.5604-0.73544-0.6177-1.7356-1.0442-3.0005-1.2796-0.11767 0.00006-0.25005 0.00006-0.39713 0-0.11767-0.0294-0.25005-0.0588-0.39713-0.0882l-2.2945-0.26476v-2.824h51.627"/>
    </g>
    <path id="path2849" fill="url(#linearGradient3666)" d="m294.09 241.18c1.97 48.785 21.89 96.936 59.621 133.7 37.731 36.762 86.384 55.422 135.2 56.122"/>
  </g>
  <metadata>
    <rdf:RDF>
      <cc:Work>
        <dc:format>image/svg+xml</dc:format>
        <dc:type rdf:resource="http://purl.org/dc/dcmitype/StillImage"/>
        <cc:license rdf:resource="http://creativecommons.org/licenses/publicdomain/"/>
        <dc:publisher>
          <cc:Agent rdf:about="http://openclipart.org/">
            <dc:title>Openclipart</dc:title>
          </cc:Agent>
        </dc:publisher>
        <dc:title>Peel sticker</dc:title>
        <dc:date>2011-01-26T23:51:01</dc:date>
        <dc:description>A blue sticker with the upper right hand portion peeled back. Text says "Peel Here".</dc:description>
        <dc:source>http://openclipart.org/detail/110161/peel-sticker-by-ramchand</dc:source>
        <dc:creator>
          <cc:Agent>
            <dc:title>Ramchand</dc:title>
          </cc:Agent>
        </dc:creator>
        <dc:subject>
          <rdf:Bag>
            <rdf:li>brand</rdf:li>
            <rdf:li>circle</rdf:li>
            <rdf:li>clip art</rdf:li>
            <rdf:li>clipart</rdf:li>
            <rdf:li>logo</rdf:li>
            <rdf:li>peel</rdf:li>
            <rdf:li>product</rdf:li>
            <rdf:li>sticker</rdf:li>
          </rdf:Bag>
        </dc:subject>
      </cc:Work>
      <cc:License rdf:about="http://creativecommons.org/licenses/publicdomain/">
        <cc:permits rdf:resource="http://creativecommons.org/ns#Reproduction"/>
        <cc:permits rdf:resource="http://creativecommons.org/ns#Distribution"/>
        <cc:permits rdf:resource="http://creativecommons.org/ns#DerivativeWorks"/>
      </cc:License>
    </rdf:RDF>
  </metadata>
</svg>
