<?xml version="1.0" encoding="UTF-8" standalone="no"?>
<svg
   xmlns:dc="http://purl.org/dc/elements/1.1/"
   xmlns:cc="http://creativecommons.org/ns#"
   xmlns:rdf="http://www.w3.org/1999/02/22-rdf-syntax-ns#"
   xmlns:svg="http://www.w3.org/2000/svg"
   xmlns="http://www.w3.org/2000/svg"
   xmlns:sodipodi="http://sodipodi.sourceforge.net/DTD/sodipodi-0.dtd"
   xmlns:inkscape="http://www.inkscape.org/namespaces/inkscape"
   version="1.1"
   id="svg2"
   xml:space="preserve"
   width="666.66669"
   height="666.66669"
   viewBox="0 0 666.66669 666.66669"
   sodipodi:docname="opción 2telar.ai"><metadata
     id="metadata8"><rdf:RDF><cc:Work
         rdf:about=""><dc:format>image/svg+xml</dc:format><dc:type
           rdf:resource="http://purl.org/dc/dcmitype/StillImage" /></cc:Work></rdf:RDF></metadata><defs
     id="defs6"><clipPath
       clipPathUnits="userSpaceOnUse"
       id="clipPath18"><path
         d="M 0,500 H 500 V 0 H 0 Z"
         id="path16" /></clipPath><linearGradient
       x1="0"
       y1="0"
       x2="1"
       y2="0"
       gradientUnits="userSpaceOnUse"
       gradientTransform="matrix(24.351917,13.347701,13.347701,-24.351917,274.2001,236.46759)"
       spreadMethod="pad"
       id="linearGradient60"><stop
         style="stop-opacity:1;stop-color:#7672f2"
         offset="0"
         id="stop56" /><stop
         style="stop-opacity:1;stop-color:#00d5f3"
         offset="1"
         id="stop58" /></linearGradient><linearGradient
       x1="0"
       y1="0"
       x2="1"
       y2="0"
       gradientUnits="userSpaceOnUse"
       gradientTransform="matrix(24.351919,13.347702,13.347702,-24.351919,268.73242,246.44299)"
       spreadMethod="pad"
       id="linearGradient80"><stop
         style="stop-opacity:1;stop-color:#7672f2"
         offset="0"
         id="stop76" /><stop
         style="stop-opacity:1;stop-color:#00d5f3"
         offset="1"
         id="stop78" /></linearGradient><linearGradient
       x1="0"
       y1="0"
       x2="1"
       y2="0"
       gradientUnits="userSpaceOnUse"
       gradientTransform="matrix(24.351866,13.347674,13.347674,-24.351866,271.46625,241.45534)"
       spreadMethod="pad"
       id="linearGradient100"><stop
         style="stop-opacity:1;stop-color:#7672f2"
         offset="0"
         id="stop96" /><stop
         style="stop-opacity:1;stop-color:#00d5f3"
         offset="1"
         id="stop98" /></linearGradient><linearGradient
       x1="0"
       y1="0"
       x2="1"
       y2="0"
       gradientUnits="userSpaceOnUse"
       gradientTransform="matrix(51.700703,28.338039,28.338039,-51.700703,263.78091,239.09549)"
       spreadMethod="pad"
       id="linearGradient120"><stop
         style="stop-opacity:1;stop-color:#7672f2"
         offset="0"
         id="stop116" /><stop
         style="stop-opacity:1;stop-color:#00d5f3"
         offset="1"
         id="stop118" /></linearGradient><linearGradient
       x1="0"
       y1="0"
       x2="1"
       y2="0"
       gradientUnits="userSpaceOnUse"
       gradientTransform="matrix(-51.700714,28.338045,-28.338045,-51.700714,307.63507,236.00943)"
       spreadMethod="pad"
       id="linearGradient140"><stop
         style="stop-opacity:1;stop-color:#7672f2"
         offset="0"
         id="stop136" /><stop
         style="stop-opacity:1;stop-color:#00d5f3"
         offset="1"
         id="stop138" /></linearGradient><linearGradient
       x1="0"
       y1="0"
       x2="1"
       y2="0"
       gradientUnits="userSpaceOnUse"
       gradientTransform="matrix(51.700684,28.338028,28.338028,-51.700684,257.85751,249.90225)"
       spreadMethod="pad"
       id="linearGradient160"><stop
         style="stop-opacity:1;stop-color:#7672f2"
         offset="0"
         id="stop156" /><stop
         style="stop-opacity:1;stop-color:#00d5f3"
         offset="1"
         id="stop158" /></linearGradient></defs><sodipodi:namedview
     pagecolor="#ffffff"
     bordercolor="#666666"
     borderopacity="1"
     objecttolerance="10"
     gridtolerance="10"
     guidetolerance="10"
     inkscape:pageopacity="0"
     inkscape:pageshadow="2"
     inkscape:window-width="640"
     inkscape:window-height="480"
     id="namedview4" /><g
     id="g10"
     inkscape:groupmode="layer"
     inkscape:label="opción 2telar"
     transform="matrix(1.3333333,0,0,-1.3333333,0,666.66667)"><g
       id="g12"><g
         id="g14"
         clip-path="url(#clipPath18)"><g
           id="g20"
           transform="translate(94.6256,303.5915)"><path
             d="m 0,0 v 0 c -22.77,0.01 -41.236,-18.439 -41.247,-41.208 l -0.019,-40.173 40.174,-0.018 c 22.769,-0.011 41.236,18.438 41.246,41.207 v 10e-4 C 40.164,-18.005 22.187,-0.011 0,0"
             style="fill:#4a6b89;fill-opacity:1;fill-rule:nonzero;stroke:none"
             id="path22" /></g><g
           id="g24"
           transform="translate(112.8698,262.8913)"><path
             d="m 0,0 v 0 c -36.796,0 -66.625,29.829 -66.625,66.625 v 64.921 h 64.92 c 36.796,0 66.625,-29.829 66.625,-66.625 C 64.92,29.066 35.854,0 0,0"
             style="fill:#2ccca7;fill-opacity:1;fill-rule:nonzero;stroke:none"
             id="path26" /></g><g
           id="g28"
           transform="translate(162.8239,388.9387)"><path
             d="m 0,0 v 0 c 0,9.952 8.068,18.021 18.021,18.021 h 17.56 V 0.461 c 0,-9.953 -8.068,-18.022 -18.021,-18.022 C 7.862,-17.561 0,-9.698 0,0"
             style="fill:#00abe2;fill-opacity:1;fill-rule:nonzero;stroke:none"
             id="path30" /></g><g
           id="g32"
           transform="translate(129.4938,321.7673)"><path
             d="m 0,0 v 0 c -1.047,-27.033 20.018,-49.796 47.05,-50.843 l 47.695,-1.848 1.848,47.695 C 97.64,22.036 76.575,44.8 49.542,45.847 23.201,46.867 1.021,26.341 0,0"
             style="fill:#00abe2;fill-opacity:1;fill-rule:nonzero;stroke:none"
             id="path34" /></g></g></g><text
       transform="matrix(1,0,0,-1,139.1997,231.1924)"
       style="font-variant:normal;font-weight:bold;font-stretch:normal;font-size:36px;font-family:'Khand Bold';-inkscape-font-specification:Khand-Bold;writing-mode:lr-tb;fill:#2ccca7;fill-opacity:1;fill-rule:nonzero;stroke:none"
       id="text38"><tspan
         x="0 26.351999 45.827999 63.324001 85.608002 111.96 131.436 166.42799 188.82001 208.476 232.812"
         y="0"
         sodipodi:role="line"
         id="tspan36">el tel r.co</tspan></text><text
       transform="matrix(1,0,0,-1,143.2905,210.5234)"
       style="font-variant:normal;font-weight:500;font-stretch:normal;font-size:11.0363px;font-family:'Khand Medium';-inkscape-font-specification:Khand-Medium;writing-mode:lr-tb;fill:#00abe2;fill-opacity:1;fill-rule:nonzero;stroke:none"
       id="text42"><tspan
         x="0 11.786768 23.970844 36.265282 48.052052 58.183372 69.881851 82.065926 94.238968 104.0392 114.17052 127.51341 139.30019 151.48425 163.18274 173.31406 186.04994 198.23402 211.5769 223.36368 235.54774"
         y="0"
         sodipodi:role="line"
         id="tspan40">TEXTILES INTELIGENTES</tspan></text><g
       id="g44"><g
         id="g46"><g
           id="g52"><g
             id="g54"><path
               d="m 293.063,247.719 c 0,-0.917 0.746,-1.664 1.664,-1.664 v 0 c 0.916,0 1.662,0.747 1.662,1.664 v 0 c 0,0.917 -0.746,1.663 -1.662,1.663 v 0 c -0.918,0 -1.664,-0.746 -1.664,-1.663 m 0.732,0 c 0,0.512 0.419,0.93 0.932,0.93 v 0 c 0.513,0 0.93,-0.418 0.93,-0.93 v 0 c 0,-0.513 -0.417,-0.931 -0.93,-0.931 v 0 c -0.513,0 -0.932,0.418 -0.932,0.931"
               style="fill:url(#linearGradient60);stroke:none"
               id="path62" /></g></g></g></g><g
       id="g64"><g
         id="g66"><g
           id="g72"><g
             id="g74"><path
               d="m 269.396,247.719 c 0,-0.917 0.746,-1.664 1.663,-1.664 v 0 c 0.917,0 1.664,0.747 1.664,1.664 v 0 c 0,0.917 -0.747,1.663 -1.664,1.663 v 0 c -0.917,0 -1.663,-0.746 -1.663,-1.663 m 0.733,0 c 0,0.512 0.417,0.93 0.93,0.93 v 0 c 0.514,0 0.931,-0.418 0.931,-0.93 v 0 c 0,-0.513 -0.417,-0.931 -0.931,-0.931 v 0 c -0.513,0 -0.93,0.418 -0.93,0.931"
               style="fill:url(#linearGradient80);stroke:none"
               id="path82" /></g></g></g></g><g
       id="g84"><g
         id="g86"><g
           id="g92"><g
             id="g94"><path
               d="m 272.356,248.085 c -0.202,0 -0.366,-0.165 -0.366,-0.366 v 0 c 0,-0.203 0.164,-0.367 0.366,-0.367 v 0 h 21.074 c 0.202,0 0.365,0.164 0.365,0.367 v 0 c 0,0.201 -0.163,0.366 -0.365,0.366 v 0 z"
               style="fill:url(#linearGradient100);stroke:none"
               id="path102" /></g></g></g></g><g
       id="g104"><g
         id="g106"><g
           id="g112"><g
             id="g114"><path
               d="m 282.18,261.18 -12.829,-29.632 c -0.171,-0.394 0.011,-0.851 0.405,-1.022 v 0 c 0.101,-0.044 0.205,-0.065 0.308,-0.065 v 0 c 0.301,0 0.588,0.177 0.715,0.469 v 0 l 12.827,29.633 c 0.171,0.394 -0.011,0.851 -0.404,1.022 v 0 c -0.1,0.043 -0.205,0.064 -0.308,0.064 v 0 c -0.301,0 -0.588,-0.175 -0.714,-0.469"
               style="fill:url(#linearGradient120);stroke:none"
               id="path122" /></g></g></g></g><g
       id="g124"><g
         id="g126"><g
           id="g132"><g
             id="g134"><path
               d="m 282.584,261.585 c -0.394,-0.171 -0.575,-0.628 -0.404,-1.022 v 0 l 12.827,-29.633 c 0.127,-0.292 0.414,-0.469 0.714,-0.469 v 0 c 0.103,0 0.208,0.021 0.309,0.065 v 0 c 0.393,0.171 0.575,0.628 0.404,1.022 v 0 l -12.828,29.632 c -0.127,0.294 -0.413,0.469 -0.714,0.469 v 0 c -0.103,0 -0.208,-0.021 -0.308,-0.064"
               style="fill:url(#linearGradient140);stroke:none"
               id="path142" /></g></g></g></g><g
       id="g144"><g
         id="g146"><g
           id="g152"><g
             id="g154"><path
               d="m 279.362,263.624 c 0,-1.946 1.584,-3.53 3.531,-3.53 v 0 c 1.946,0 3.53,1.584 3.53,3.53 v 0 c 0,1.947 -1.584,3.531 -3.53,3.531 v 0 c -1.947,0 -3.531,-1.584 -3.531,-3.531 m 1.556,0 c 0,1.089 0.885,1.976 1.975,1.976 v 0 c 1.089,0 1.976,-0.887 1.976,-1.976 v 0 c 0,-1.089 -0.887,-1.975 -1.976,-1.975 v 0 c -1.09,0 -1.975,0.886 -1.975,1.975"
               style="fill:url(#linearGradient160);stroke:none"
               id="path162" /></g></g></g></g></g></svg>
